# xmcd
#
# Track frame offsets:
#	150
#	13457
#	30416
#	42609
#	57897
#	70150
#	84427
#	103007
#	112735
#	129120
#
# Disc length: 1871 seconds
#
# Revision: 0
# Processed by: cddbd v1.4PL0 Copyright (c) Steve Scherf et al.
# Submitted via: EasyCDDAExtractor 4.6.9.1
#
DISCID=7a074d0a
DTITLE=Emmylou Harris - Light of the Stable - Christmas Album
DYEAR=1979
DGENRE=Other
TTITLE0=Christmas Times' A' Coming
TTITLE1=O Little Town Of Bethlehem
TTITLE2=Away In A Manger
TTITLE3=Angle Eyes
TTITLE4=The First Noel
TTITLE5=Beutiful Star Of Bethlehem
TTITLE6=Little Drummer Boy
TTITLE7=Golden Cradle
TTITLE8=Silent Night
TTITLE9=Light Of The Stable
EXTD=YEAR: 1979
EXTT0=
EXTT1=
EXTT2=
EXTT3=
EXTT4=
EXTT5=
EXTT6=
EXTT7=
EXTT8=
EXTT9=
PLAYORDER=
